<svg xmlns="http://www.w3.org/2000/svg" xmlns:xlink="http://www.w3.org/1999/xlink" viewBox="0 0 500 500"><defs><clipPath id="freepik--clip-path--inject-88"><polygon points="89.96 390.1 316.41 430.06 379.31 359.75 401.51 193.99 194.31 193.99 194.31 276.87 90.7 351.62 89.96 390.1" style="fill:none"></polygon></clipPath></defs><g id="freepik--background-simple--inject-88"><path d="M377.6,99.28s-40-34.24-93.34-20.73-76.63,58.68-107.77,89.36c-16.31,16.07-40,21.59-59.19,33.8-61.43,39-54.61,130.24-8.77,165.66,39.69,30.66,90.07,34.95,156.24,14.57s113.47-32.44,155.66-94.26S426.76,145.64,377.6,99.28Z" style="fill:#6EC1B2"></path><path d="M377.6,99.28s-40-34.24-93.34-20.73-76.63,58.68-107.77,89.36c-16.31,16.07-40,21.59-59.19,33.8-61.43,39-54.61,130.24-8.77,165.66,39.69,30.66,90.07,34.95,156.24,14.57s113.47-32.44,155.66-94.26S426.76,145.64,377.6,99.28Z" style="fill:#fff;opacity:0.7000000000000001"></path></g><g id="freepik--Plants--inject-88"><path d="M64.15,247.48c2.07.9,7.14.79,7.14.79s-1.09-3.32-1.18-3.52c-1.12-2.33-4.63-6.17-7.5-5.78a3.42,3.42,0,0,0-2.74,4.28C60.35,245.23,62.38,246.71,64.15,247.48Z" style="fill:#263238"></path><path d="M115.42,248.59s.92-3.37,1-3.59c.35-2.55-.46-7.7-3.06-8.95a3.41,3.41,0,0,0-4.65,2.06c-.7,1.91.18,4.26,1.23,5.88C111.13,245.89,115.42,248.59,115.42,248.59Z" style="fill:#263238"></path><path d="M130.55,230.22c-2.87-.31-6.28,3.63-7.33,6-.09.21-1.14,3.56-1.09,3.55h.06c-.54.62-1.12,1.29-1.73,2-1.12,1.38-2.38,2.95-3.63,4.75a61,61,0,0,0-3.77,6,45.16,45.16,0,0,0-3.22,7.24s0,.06,0,.09c0-.84,0-3.21,0-3.39-.33-2.56-2.47-7.3-5.31-7.83a3.42,3.42,0,0,0-3.95,3.21c-.16,2,1.31,4.07,2.75,5.35,1.62,1.45,6.12,2.85,6.47,3a61.19,61.19,0,0,0-1.9,7.85c-.27,1.54-.5,3.11-.71,4.68,0-.73,0-1.39,0-1.48-.33-2.55-2.48-7.3-5.32-7.83a3.43,3.43,0,0,0-3.94,3.22c-.16,2,1.31,4.06,2.75,5.35s5.26,2.57,6.28,2.89c-.08.61-.16,1.21-.23,1.81-.35,2.9-.68,5.8-1.09,8.63-.15,1-.33,2-.51,3,0-.65,0-1.2,0-1.28-.33-2.56-2.48-7.31-5.32-7.83a3.42,3.42,0,0,0-3.94,3.21c-.16,2,1.31,4.07,2.75,5.35s4.89,2.45,6.1,2.84c-.22,1-.42,2-.67,3-.19.64-.32,1.28-.54,1.92s-.41,1.27-.62,1.9c-.43,1.19-.87,2.43-1.32,3.58-.31.8-.62,1.56-.93,2.33.16-1,.42-2.94.43-3.1a13.31,13.31,0,0,0-1.78-6.46,4.73,4.73,0,0,0-.05-.75,3.42,3.42,0,0,0-4.18-2.9c-2.79.74-4.56,5.64-4.69,8.22,0,.15.09,1.81.17,2.85-.14-.61-.27-1.2-.42-1.82-.3-1.23-.63-2.46-1-3.78-.19-.63-.39-1.26-.58-1.91s-.45-1.29-.68-1.95c-.55-1.51-1.18-3-1.85-4.51,1.08-.26,4.9-1.23,6.44-2.41s3.15-3.09,3.13-5.13a3.41,3.41,0,0,0-3.69-3.5c-2.87.31-5.36,4.89-5.88,7.41,0,.16-.21,2-.28,3-.41-.89-.82-1.79-1.26-2.69-1.28-2.58-2.66-5.16-4-7.73-.42-.79-.82-1.58-1.24-2.37.39-.09,5-1.15,6.68-2.47,1.53-1.17,3.15-3.09,3.13-5.13a3.41,3.41,0,0,0-3.69-3.5c-2.87.31-5.36,4.89-5.88,7.41,0,.19-.28,2.86-.31,3.54-.91-1.74-1.79-3.48-2.59-5.24A59.93,59.93,0,0,1,73.61,261c.18,0,5-1.12,6.71-2.47,1.53-1.18,3.15-3.09,3.14-5.13a3.42,3.42,0,0,0-3.69-3.5c-2.88.31-5.37,4.88-5.89,7.41,0,.16-.22,2.2-.28,3.17l-.17,0A45.29,45.29,0,0,1,72,252.81c-.16-1.43-.23-2.81-.27-4.16.91-.11,5.06-.66,6.78-1.7s3.47-2.73,3.68-4.76a3.42,3.42,0,0,0-3.29-3.88c-2.89,0-5.86,4.27-6.66,6.72,0,.13-.33,1.54-.53,2.57,0-.61,0-1.24,0-1.82,0-2.18.14-4.18.28-5.95.09-1,.18-1.92.29-2.77.83-.57,4.17-2.93,5.2-4.61s1.82-4,1.07-5.92a3.41,3.41,0,0,0-4.7-1.93c-2.57,1.33-3.24,6.49-2.82,9,0,.22,1,3.6,1.05,3.57l0,0c-.11.82-.22,1.69-.32,2.65-.18,1.77-.36,3.77-.41,6a61.41,61.41,0,0,0,.16,7.09,44.75,44.75,0,0,0,1.32,7.81.32.32,0,0,0,0,.09c-.46-.71-1.8-2.67-1.92-2.8-1.68-1.95-6.09-4.73-8.75-3.6a3.41,3.41,0,0,0-1.51,4.85c1,1.79,3.33,2.67,5.24,3,2.15.32,6.67-1,7-1.1a60.22,60.22,0,0,0,2.74,7.59c.63,1.44,1.3,2.87,2,4.3-.41-.61-.79-1.14-.85-1.21-1.68-1.95-6.09-4.73-8.75-3.6A3.41,3.41,0,0,0,66.55,273c1,1.78,3.33,2.67,5.23,2.94s5.82-.76,6.84-1l.81,1.63c1.31,2.61,2.63,5.21,3.84,7.79.43.92.82,1.83,1.21,2.74-.36-.54-.68-1-.73-1.05-1.69-1.95-6.1-4.72-8.75-3.6a3.42,3.42,0,0,0-1.52,4.86c1,1.79,3.33,2.67,5.24,3s5.44-.66,6.65-1c.38.95.75,1.89,1.07,2.83.21.64.45,1.25.61,1.9l.54,1.93c.3,1.23.61,2.5.87,3.71.18.84.35,1.65.51,2.46-.41-.91-1.27-2.68-1.36-2.82-1.37-2.19-5.3-5.6-8.1-4.89a3.41,3.41,0,0,0-2.23,4.57c.7,1.92,2.89,3.15,4.73,3.71,2,.62,6.52.06,7.08,0,.27,1.34.52,2.65.73,3.89.76,4.29,1.22,7.89,1.51,10.41.06.45.1.85.14,1.22H82.78l2.68,52.33h15.8l2.68-52.33h-8.1l.18-.37c1.11-2.31,2.65-5.64,4.32-9.71.52-1.29,1.06-2.67,1.6-4.1.55.12,5,1,7.06.55,1.88-.42,4.16-1.49,5-3.34a3.42,3.42,0,0,0-1.89-4.73c-2.73-.92-6.91,2.19-8.44,4.27-.09.12-.93,1.56-1.44,2.47.22-.58.44-1.14.66-1.75.43-1.19.84-2.39,1.27-3.68l.57-1.91c.21-.64.34-1.33.52-2,.37-1.57.67-3.17.94-4.79,1,.38,4.77,1.68,6.7,1.54s4.33-.84,5.44-2.55a3.41,3.41,0,0,0-1.15-4.95c-2.56-1.33-7.16,1.11-9,2.93-.12.12-1.28,1.57-1.91,2.38.16-1,.32-1.95.44-2.94.35-2.86.62-5.77.91-8.68.08-.89.18-1.77.27-2.66.37.14,4.77,1.78,6.93,1.63,1.92-.14,4.33-.84,5.45-2.55a3.43,3.43,0,0,0-1.15-5c-2.57-1.32-7.17,1.12-9,2.94-.14.14-1.81,2.23-2.21,2.78.21-1.95.43-3.89.73-5.8a60.83,60.83,0,0,1,1.66-7.62c.17.06,4.76,1.79,7,1.63,1.92-.13,4.33-.84,5.44-2.54a3.43,3.43,0,0,0-1.14-5c-2.57-1.32-7.17,1.12-9,2.94-.12.12-1.4,1.71-2,2.48l-.14-.08a43.8,43.8,0,0,1,3-7.24c.65-1.28,1.35-2.47,2.06-3.62.82.41,4.59,2.24,6.6,2.32s4.39-.36,5.69-1.94a3.42,3.42,0,0,0-.6-5c-2.41-1.59-7.25.33-9.26,1.93-.11.09-1.13,1.1-1.86,1.85.33-.51.65-1.05,1-1.53,1.21-1.82,2.42-3.41,3.51-4.81.63-.79,1.21-1.5,1.76-2.15,1,0,5.11-.14,6.89-1s3.74-2.35,4.16-4.34A3.42,3.42,0,0,0,130.55,230.22ZM98.76,307.37c-1.74,4-3.33,7.26-4.48,9.52-.23.46-.44.86-.63,1.23h-.2c0-.44-.12-.92-.19-1.46-.35-2.55-.9-6.17-1.76-10.49-.27-1.36-.58-2.81-.91-4.3a37.2,37.2,0,0,0,4-1.86c1.47,1.6,5.26,3.48,5.75,3.72C99.78,305,99.26,306.22,98.76,307.37Z" style="fill:#263238"></path></g><g id="freepik--character-2--inject-88"><path d="M186.77,319.1s.23,6.94.23,10.29a15.81,15.81,0,0,1-4.06,9.8,10,10,0,0,1-5,2.87,1.71,1.71,0,0,1-1.68-2.39c.48-1.43,1.44-6,1.44-6s0-2.15.24-4.78a18.38,18.38,0,0,1,1.67-5.5l.24-6Z" style="fill:#fff;stroke:#263238;stroke-linecap:round;stroke-linejoin:round"></path><path d="M172.65,216s7.42,4.31,8.61,17,5.27,48.07,5.74,55.73,3.83,29.89,3.83,29.89a10.46,10.46,0,0,1-6,3.35,70.45,70.45,0,0,1-7.89.48s-4.07-82.75-4.07-83.71S172.65,216,172.65,216Z" style="fill:#fff;stroke:#263238;stroke-linecap:round;stroke-linejoin:round"></path><path d="M124.82,301.88s.2.12.57.31a39.55,39.55,0,0,0,19,3.76c12-.48,27.51-8.13,27.51-8.13l.24,68.88s-31.1,9.8-46.4,9.8l-5.5-.24Z" style="fill:#263238;stroke:#263238;stroke-linecap:round;stroke-linejoin:round"></path><path d="M141.8,203.35a183.15,183.15,0,0,1-17.46,10c-7.17,3.35-14.11,14.83-14.35,20.09S126.26,305,126.26,305s15.54,5,29.17,3.11,16.51-10.28,16.51-10.28.24-79.65-1.92-82.75S150.65,201.19,141.8,203.35Z" style="fill:#fff;stroke:#263238;stroke-linecap:round;stroke-linejoin:round"></path><path d="M155,207.65s.95,8.85,2.63,31.09,2.15,112.41,2.15,112.41l.48,19.13s12.2-1.91,15.78-4.78a37.66,37.66,0,0,0,4.79-4.3s-1.2-64.58-1.2-83.71a233.9,233.9,0,0,0-3.35-37.31s-.72-19.37-2.87-23.2-15.54-11-16.26-11S154.48,204.54,155,207.65Z" style="fill:#fff;stroke:#263238;stroke-linecap:round;stroke-linejoin:round"></path><polygon points="176.58 271.1 164.6 272.4 164.6 251.06 176.58 249.76 176.58 271.1" style="fill:#6EC1B2;stroke:#263238;stroke-linecap:round;stroke-linejoin:round"></polygon><polygon points="172.08 252.46 169.09 252.65 169.09 245.54 172.08 245.35 172.08 252.46" style="fill:#fff;stroke:#263238;stroke-linecap:round;stroke-linejoin:round"></polygon><path d="M159.74,233.24l6.22-2.39c.21-7.87-4.3-20.46-5.3-23.15a21.88,21.88,0,0,0-3.55-1.72c-.72,0-2.63-1.44-2.15,1.67,0,0,.95,8.85,2.63,31.09.44,5.87.8,16.47,1.09,28.9.21,2.11.34,3.39.34,3.39l4.79-34.68Z" style="fill:#fff;stroke:#263238;stroke-linecap:round;stroke-linejoin:round"></path><path d="M160.94,145.71s-13.4-5-23-2.87-15.31,7.65-20.57,16.74S108.56,188.76,109,195s.24,9.32,1.67,9.56a50.85,50.85,0,0,0,5.26.24s.24,1.2,2.87,1.2,3.35-1.44,3.35-1.44a4.76,4.76,0,0,0,3.35,1,5,5,0,0,0,3.11-2.15,20.72,20.72,0,0,1,2.63.24,5,5,0,0,0,3.11-.72,5.65,5.65,0,0,0,3.35.48c2.15-.24,3.11-2.63,3.11-2.63a41.62,41.62,0,0,0,6.93,1.43,6.63,6.63,0,0,0,3.35-1s3.35.24,5,.24a12.21,12.21,0,0,0,3.59-.71s7.17,1.19,9.09,0a14.44,14.44,0,0,0,3.11-2.64,3.14,3.14,0,0,0,3.35-.23l1.91-1.2a5.8,5.8,0,0,0,3.59-1,3.67,3.67,0,0,0,1.91-2.87s3.11-.71,3.83-1.91a4.65,4.65,0,0,0,.71-2.15s1.44-1.44,1.44-2.39V184s-6.22-1.91-10.52-13.39-1-17.7-5.74-22.72S160.94,145.71,160.94,145.71Z" style="fill:#263238;stroke:#263238;stroke-linecap:round;stroke-linejoin:round"></path><path d="M139.41,187.08s.24,21.77.72,27,8.13,19.37,11,18.18,7.17-34.44,7.17-34.44l-14.11-10.53S140.85,184.45,139.41,187.08Z" style="fill:#fff;stroke:#263238;stroke-linecap:round;stroke-linejoin:round"></path><path d="M157.59,156.71s-8.61,11.16-12.44,15.94-12.75,11.48-12.75,11.48,1.59,4.79,3.5,5.74a6.88,6.88,0,0,0,3.83.64s11.8,9.25,15.94,11.8,11.48.32,13.08-2.87,3.49-16.71,3.49-20.54-1.77-11.78-4-15S157.59,156.71,157.59,156.71Z" style="fill:#fff;stroke:#263238;stroke-linecap:round;stroke-linejoin:round"></path><path d="M139.73,190.51s11.8,9.25,15.94,11.8,11.48.32,13.08-2.87,3.49-16.71,3.49-20.54c0-.61-.05-1.33-.13-2.12-1.3,0-4.37-.14-8.05-.14-4.87,0-9.4,1.39-16,3.48a27.1,27.1,0,0,1-11.66,1.22,9.22,9.22,0,0,0,4.35,1.56c2.09,0,2.44,1.75,1.92,4.18A5.23,5.23,0,0,1,139.73,190.51Z" style="fill:#6EC1B2;stroke:#263238;stroke-linecap:round;stroke-linejoin:round"></path><path d="M157.1,173.85s-3.83-2.26-6.62,1.22" style="fill:none;stroke:#263238;stroke-linecap:round;stroke-linejoin:round"></path><path d="M165.45,173.33s1.92-2.61,4.88-.35" style="fill:none;stroke:#263238;stroke-linecap:round;stroke-linejoin:round"></path><path d="M164.58,169.33s-2.43,2.43-.17,6.61" style="fill:none;stroke:#263238;stroke-linecap:round;stroke-linejoin:round"></path><path d="M165.11,167.58s1.74-2.26,4.87,1.22" style="fill:none;stroke:#263238;stroke-linecap:round;stroke-linejoin:round;stroke-width:2px"></path><path d="M157.79,168.28s-4.52-3.48-8.7,2.26" style="fill:none;stroke:#263238;stroke-linecap:round;stroke-linejoin:round;stroke-width:2px"></path><path d="M139.41,205a159.73,159.73,0,0,0,2.39,30.61c2.87,14.83,7.21,78.15,7.21,78.15v58.33s-.88,12.72-19.3,18.43c-11,3.39-24.5-2.59-24.5-2.59s.48-99.22.48-101.37-1.44-46.4-.72-52.14.48-8.13,2.63-11,22.24-14.11,22.24-14.11Z" style="fill:#fff;stroke:#263238;stroke-linecap:round;stroke-linejoin:round"></path><path d="M139.41,205s-9.09,2.63-9.57,4.31-.47,16.74.72,21.28a50.39,50.39,0,0,1,1.44,6.94l6.69-1.68-6.22,7.18s2.64.72,5,6.69,5.26,21.53,5.26,21.53l3.61,11.36-3.13-39.1s-.72-14.11-1.68-18.66S138.69,205.5,139.41,205Z" style="fill:#fff;stroke:#263238;stroke-linecap:round;stroke-linejoin:round"></path><path d="M166,227s4.78-13.87,6.22-16.26,4.78-6,6.45-8.37,2.4.72,2.4.72-.48,3.58-1.2,4.3a23.52,23.52,0,0,0-2.15,3.35s5.72.24,7.64-.24a3.45,3.45,0,0,1,3.56,1.63c1.15,2.06-.28,2.25-1.19,3.66-1.81,2.81,0,6.69-2.12,9.3-1.91,2.39-6,2.63-8.37,3.11a43.18,43.18,0,0,0-4.55,1.2L171,233.24l-6.22-3.35Z" style="fill:#fff;stroke:#263238;stroke-linecap:round;stroke-linejoin:round"></path><path d="M122,234.2l11.24,29.65L166,227l7.89,7.18s-24.16,39.7-28.7,45.44-9.81,12.68-14.59,12.91-6.7-5-9.09-8.37-14.35-29.41-14.83-32.28-1.19-5,.48-7.9" style="fill:#fff;stroke:#263238;stroke-linecap:round;stroke-linejoin:round"></path><path d="M133.19,263.85s-6.46,6.22-6.93,10.29" style="fill:none;stroke:#263238;stroke-linecap:round;stroke-linejoin:round"></path><path d="M128.89,265.05a12.64,12.64,0,0,0-5.74,6" style="fill:none;stroke:#263238;stroke-linecap:round;stroke-linejoin:round"></path></g><g id="freepik--character-1--inject-88"><polyline points="195.78 347.6 195.78 135.03 199.95 135.03 199.95 347.6" style="fill:#263238;stroke:#263238;stroke-linecap:round;stroke-linejoin:round"></polyline><path d="M186.58,138.77a1.77,1.77,0,0,1,1.53,2c-.25,1.79-4.85,2.81-5.88-1s1.54-4.85,1.54-4.85h28.89s-2.55,4.09-2,5.88a2.13,2.13,0,0,0,3.83.76c1.28-1.53-.76-2.55-.76-2.55" style="fill:none;stroke:#263238;stroke-linecap:round;stroke-linejoin:round"></path><polygon points="403.46 185.97 224.97 169.25 224.97 143.86 403.46 160.57 403.46 185.97" style="fill:#fff;stroke:#263238;stroke-linecap:round;stroke-linejoin:round"></polygon><polygon points="326.15 174.94 287.5 171.31 287.5 156.91 326.15 160.53 326.15 174.94" style="fill:#a6a6a6;stroke:#263238;stroke-linecap:round;stroke-linejoin:round"></polygon><path d="M240.69,163.33a3.19,3.19,0,0,0-2.84-3.11A2.54,2.54,0,0,0,235,162.8a3.19,3.19,0,0,0,2.84,3.11A2.55,2.55,0,0,0,240.69,163.33Z" style="fill:none;stroke:#263238;stroke-linecap:round;stroke-linejoin:round"></path><path d="M250.93,164.29a3.2,3.2,0,0,0-2.85-3.11,2.54,2.54,0,0,0-2.84,2.58,3.17,3.17,0,0,0,2.84,3.1A2.54,2.54,0,0,0,250.93,164.29Z" style="fill:none;stroke:#263238;stroke-linecap:round;stroke-linejoin:round"></path><path d="M261.16,165.25a3.19,3.19,0,0,0-2.84-3.11,2.54,2.54,0,0,0-2.85,2.57,3.19,3.19,0,0,0,2.85,3.11A2.54,2.54,0,0,0,261.16,165.25Z" style="fill:none;stroke:#263238;stroke-linecap:round;stroke-linejoin:round"></path><path d="M271.39,166.21a3.18,3.18,0,0,0-2.84-3.11,2.54,2.54,0,0,0-2.84,2.57,3.19,3.19,0,0,0,2.84,3.11A2.54,2.54,0,0,0,271.39,166.21Z" style="fill:none;stroke:#263238;stroke-linecap:round;stroke-linejoin:round"></path><line x1="339.42" y1="162.53" x2="339.42" y2="166.7" style="fill:none;stroke:#263238;stroke-linecap:round;stroke-linejoin:round"></line><line x1="346.62" y1="163.21" x2="346.62" y2="167.38" style="fill:none;stroke:#263238;stroke-linecap:round;stroke-linejoin:round"></line><line x1="339.42" y1="170.53" x2="339.42" y2="174.69" style="fill:none;stroke:#263238;stroke-linecap:round;stroke-linejoin:round"></line><line x1="346.62" y1="171.2" x2="346.62" y2="175.37" style="fill:none;stroke:#263238;stroke-linecap:round;stroke-linejoin:round"></line><line x1="351.6" y1="162.93" x2="351.6" y2="177.14" style="fill:none;stroke:#263238;stroke-linecap:round;stroke-linejoin:round"></line><line x1="357.42" y1="164.22" x2="357.42" y2="168.39" style="fill:none;stroke:#263238;stroke-linecap:round;stroke-linejoin:round"></line><line x1="364.62" y1="164.89" x2="364.62" y2="169.06" style="fill:none;stroke:#263238;stroke-linecap:round;stroke-linejoin:round"></line><line x1="357.42" y1="172.21" x2="357.42" y2="176.38" style="fill:none;stroke:#263238;stroke-linecap:round;stroke-linejoin:round"></line><line x1="364.62" y1="172.89" x2="364.62" y2="177.06" style="fill:none;stroke:#263238;stroke-linecap:round;stroke-linejoin:round"></line><line x1="369.6" y1="164.62" x2="369.6" y2="178.83" style="fill:none;stroke:#263238;stroke-linecap:round;stroke-linejoin:round"></line><line x1="375.42" y1="165.91" x2="375.42" y2="170.07" style="fill:none;stroke:#263238;stroke-linecap:round;stroke-linejoin:round"></line><line x1="382.62" y1="166.58" x2="382.62" y2="170.75" style="fill:none;stroke:#263238;stroke-linecap:round;stroke-linejoin:round"></line><line x1="375.42" y1="173.9" x2="375.42" y2="178.07" style="fill:none;stroke:#263238;stroke-linecap:round;stroke-linejoin:round"></line><line x1="382.62" y1="174.57" x2="382.62" y2="178.74" style="fill:none;stroke:#263238;stroke-linecap:round;stroke-linejoin:round"></line><line x1="387.6" y1="166.31" x2="387.6" y2="180.51" style="fill:none;stroke:#263238;stroke-linecap:round;stroke-linejoin:round"></line><g style="clip-path:url(#freepik--clip-path--inject-88)"><polygon points="175.45 338.15 173.96 307.54 189.12 300.7 190.31 331.32 175.45 338.15" style="fill:#fff;stroke:#263238;stroke-linecap:round;stroke-linejoin:round"></polygon><path d="M162.37,307.54c-20.21,11-27.39,18.53-29.13,31.5-.89,6.65,0,34.48,0,34.48l5-3.56.3-7.14,87.09-49.63.3-30S182.58,296.54,162.37,307.54ZM223,311.1l-83.81,46.37s-.92-14.17.89-19.61c2.51-7.59,4.08-12.05,15.1-18.61,5.43-3.23,25.32-13.5,39.29-19.44s28.83-11,28.83-11Z" style="fill:#fff;stroke:#263238;stroke-linecap:round;stroke-linejoin:round"></path><path d="M382.24,253.44c-3.14-3.5-17.89-5.47-17.89-5.47l-98.25-16.3s-9.49,1.12-11.53,4.65a75.31,75.31,0,0,0-4.28,9.86l.21,0-32.17,86.11L353,374.67s29.54-92.5,30.54-96.83S385.57,255.44,382.24,253.44Z" style="fill:#4c4c4c;stroke:#263238;stroke-linecap:round;stroke-linejoin:round"></path><path d="M379.33,251.33c3.51,1.69,3.34,6.34,2.34,10.67s-36.34,107-36.34,107L210.66,326.67l33-88.34s1.67-6,6.34-7.66l.87-.3a25.91,25.91,0,0,1,12.31-.69C283.45,233.29,373.8,248.67,379.33,251.33Z" style="fill:#263238;stroke:#263238;stroke-linecap:round;stroke-linejoin:round"></path><path d="M336.52,252.67s20,6.33,25.16,8,4,4.66,3.2,8-30,63-32,64.33-2.79,2.33-6,2.33-83.88-19-98.66-21,34.35-78.66,34.35-78.66Z" style="fill:#fff;stroke:#263238;stroke-linecap:round;stroke-linejoin:round"></path><path d="M248.66,222s-4.33,5.33-6.33,22.33-8,40.34-8,43,4.67,3.34,18.34,10,63.66,14.34,68.66,15,13,4,15,2,12-27.66,14.67-44.66,5.67-30.67,5.67-35.34-25.34-10-48.67-15-54.33-5.66-55.67-5.33S248.66,222,248.66,222Z" style="fill:#fff;stroke:#263238;stroke-linecap:round;stroke-linejoin:round"></path><path d="M292.78,266.33s6.86-.71,11.35,0" style="fill:none;stroke:#263238;stroke-linecap:round;stroke-linejoin:round"></path><path d="M309.34,238.18a49.73,49.73,0,0,1,13.48-3.55" style="fill:none;stroke:#263238;stroke-linecap:round;stroke-linejoin:round"></path><path d="M272.9,270.12s-7.57-6.62-13-8.28" style="fill:none;stroke:#263238;stroke-linecap:round;stroke-linejoin:round"></path><path d="M222.12,224.85s-5.16,14-6.6,18.76-1.86,23.51-1.86,27.63a95.86,95.86,0,0,0,1,10.93l1.24,16.49s-14.23-.2-16.7-1-2.06-6.18-2.06-17.73,6-32,7.21-36.91,3.1-13.4,3.1-13.4-2.68-8.25-2.68-11.13S213,213.3,217,212.68s6.6.21,7,3.71S222.12,224.85,222.12,224.85Z" style="fill:#fff;stroke:#263238;stroke-linecap:round;stroke-linejoin:round"></path><path d="M208.51,210.62s-3.51.62-3.71,1.86,1.44,7.42,2.88,7.83a2.21,2.21,0,0,0,2.89-1.85C210.57,217.22,208.51,210.62,208.51,210.62Z" style="fill:#fff;stroke:#263238;stroke-linecap:round;stroke-linejoin:round"></path><path d="M212.84,208.15s-3.51-.21-4.33,1.65.41,7.42,2.06,8.66,3.09-1,3.09-1Z" style="fill:#fff;stroke:#263238;stroke-linecap:round;stroke-linejoin:round"></path><path d="M217.58,207.53s-4.54-.83-4.74.62.41,8.45.82,9.28,3.3,0,3.92-.83S217.58,207.53,217.58,207.53Z" style="fill:#fff;stroke:#263238;stroke-linecap:round;stroke-linejoin:round"></path><path d="M217.58,207.53s-.21,7.42.62,8.25,3.92,1.65,4.53.2.83-6.8.62-7.83S220.26,205.67,217.58,207.53Z" style="fill:#fff;stroke:#263238;stroke-linecap:round;stroke-linejoin:round"></path><path d="M219.44,229.18s5.56-5.36,6.39-7.84-.21-8-.83-9.28-7.83-.61-9.07-.2-2.27,1.44-1.24,2.27,5.16.82,5.16.82-3.51,3.92-3.3,7.42" style="fill:#fff;stroke:#263238;stroke-linecap:round;stroke-linejoin:round"></path><path d="M272.84,258s-1.45,13-1.45,13.61,1.86,1.45-8.45-1.23-13.4-4.54-15.88-3.3-33.19,14.43-33.19,14.43v22.06s12.58-2.47,16.08-3.3,9.69-1.65,9.69-1.65l-8.45,26.6a98.13,98.13,0,0,1,33,1.45c16.91,3.91,40.62,13.19,40.62,13.19s10.51-51.55,10.51-53S291,275,291,275l3.1-12S282.74,263.2,272.84,258Z" style="fill:#6EC1B2;stroke:#263238;stroke-linecap:round;stroke-linejoin:round"></path><path d="M291,275l3.1-12s-11.34.21-21.24-4.95c0,0-1.45,13-1.45,13.61s1.33,1.2-4.51-.23c.16,2.54,1.08,17.35,1.83,21.68a16.17,16.17,0,0,0,2.68,7v5.15l2.89-4.53s9.49-5.16,14.43-13a56.64,56.64,0,0,0,5.57-11.34Z" style="fill:#fff;stroke:#263238;stroke-linecap:round;stroke-linejoin:round"></path><polyline points="268.49 276.68 274.95 279.17 275.95 281.41" style="fill:none;stroke:#263238;stroke-linecap:round;stroke-linejoin:round"></polyline><path d="M280.43,282.65a2.25,2.25,0,0,1,2.23-1.24c1.5.25,7.47,1.49,7.47,1.49" style="fill:none;stroke:#263238;stroke-linecap:round;stroke-linejoin:round"></path><polyline points="243.76 282.79 239.64 298.66 241.29 281.55" style="fill:none;stroke:#263238;stroke-linecap:round;stroke-linejoin:round"></polyline><path d="M271,238.05s.33-3.52-1.93-3.05-1.25,7.87-.58,10.12,2.91,1,2.91,1Z" style="fill:none;stroke:#263238;stroke-linecap:round;stroke-linejoin:round"></path><path d="M268.76,241.61s-1.17,11.16-.05,15.06,5.84,11,10.63,12.94,13.31-3.83,16.55-6.18,4.58-6.92,4.58-6.92,5.7-3,7.86-7.41,0-6.81,0-6.81a22.41,22.41,0,0,1-.39-7.62c.52-4.14,1.37-11.58-7.34-13.43s-17.33-.4-21.39,2.37-8.53,5.37-8.7,7S268.76,241.61,268.76,241.61Z" style="fill:#fff;stroke:#263238;stroke-linecap:round;stroke-linejoin:round"></path><path d="M281.6,210.15a41.16,41.16,0,0,0-6.54,2.43c-1.83,1.08-4.83,4.65-4.83,4.65l6.15-1.38s-6.28,4.69-8.06,7.62a33.88,33.88,0,0,0-2.75,5.63l2.84-1.92s-.14,2.68-.12,3.51l.1,4.12.37,6.8,2.26-8.72,12.6-7.73.06,2.27s-.42-.2,5.76-.35a39.44,39.44,0,0,0,11.5-2.14l-2.39,3.57,2.87-.69s-1.32,5.19,0,8.46S304,242,304,242l-.91,5.18,3.61-4.42,1.63-.46s3.29-8.94,4.22-13.09-.61-8.44-2.14-11.91-8.7-10.1-17.18-10.72a46.08,46.08,0,0,0-16.24,2Z" style="fill:#263238;stroke:#263238;stroke-linecap:round;stroke-linejoin:round"></path><path d="M274.07,239.62s4.07-2.16,6.61.46" style="fill:none;stroke:#263238;stroke-linecap:round;stroke-linejoin:round"></path><path d="M289.19,242.14s4.08-1.75,6.43,1.5" style="fill:none;stroke:#263238;stroke-linecap:round;stroke-linejoin:round"></path><path d="M283.4,241.46s-2.56,5-2.09,7.47,3.93.53,3.93.53" style="fill:none;stroke:#263238;stroke-linecap:round;stroke-linejoin:round"></path><path d="M277.48,252.53s3.4,4,10.56,1.81" style="fill:none;stroke:#263238;stroke-linecap:round;stroke-linejoin:round"></path><path d="M290.44,234.27s3.9-.92,6.69,3.55" style="fill:none;stroke:#263238;stroke-linecap:round;stroke-linejoin:round;stroke-width:2px"></path><path d="M282.35,232.41s-5.83-2.33-8.44.62" style="fill:none;stroke:#263238;stroke-linecap:round;stroke-linejoin:round;stroke-width:2px"></path><path d="M87,399.33s114.33-73.33,116-74a133,133,0,0,1,29-7.66c14.66-2,44,3,61,12s47,28.66,52.67,33.66,6.66,16,6.66,16L352,395" style="fill:#fff;stroke:#263238;stroke-linecap:round;stroke-linejoin:round"></path><path d="M180.11,340.06s32.93-10.25,86.55,6.67,67.65,41.24,68.47,44.54.42,20.63.42,20.63" style="fill:none;stroke:#263238;stroke-linecap:round;stroke-linejoin:round"></path><path d="M307.07,332.89l1,5.16L270.57,359.9l-16.91.21s-8.66,3.71-7.63,4.54,5.57-.83,5.57-.83l3.92-.62-7.42,3.51-6.81,6s-.62,1,.41,1,6.6-3.71,6.6-3.71l4.13-1.65-9.08,6.8s-.2,1.44,1,1.44,6.19-3.71,6.19-3.71l5.36-2.06s-6.6,5.57-7.22,6.19-1.23,1.85.42,1.85,6.39-4.33,6.39-4.33l3.71-2.27-4.74,5.16s.82,1.24,3.09-.62,7.63-6.19,7.63-6.19a45.67,45.67,0,0,0,6.18-1.85c1-.62,5.78-2.89,5.78-2.89S319.85,350,321.91,349s4.95-4.94,4.95-7S324,330.42,324,330.42Z" style="fill:#fff;stroke:#263238;stroke-linecap:round;stroke-linejoin:round"></path><line x1="300.03" y1="314.73" x2="296.41" y2="305" style="fill:none;stroke:#263238;stroke-linecap:round;stroke-linejoin:round"></line><polyline points="299.85 303.41 300.88 336.4 326.04 331.86 315.31 286.91" style="fill:#6EC1B2;stroke:#263238;stroke-linecap:round;stroke-linejoin:round"></polyline><polygon points="340.67 357.33 341 392.67 352.67 377 352.67 345 340.67 357.33" style="fill:#fff;stroke:#263238;stroke-linecap:round;stroke-linejoin:round"></polygon><path d="M369,335.33c-3.33-9.33-11.67-7.66-16.33-3S321.33,368.67,319,378s-2,47.33-2,47.33L318,436l7.33-9,.34-9.33,44-53.34,1,14L375,371S372.33,344.67,369,335.33ZM325.33,407s.67-18.67,1.67-24c1.27-6.8,5.4-12.55,9.6-17.67,5.27-6.43,10.62-12.78,16.21-18.93,1-1,9.95-11.06,10.86-8.73,2.33,6,4.66,18,4.66,18Z" style="fill:#fff;stroke:#263238;stroke-linecap:round;stroke-linejoin:round"></path></g></g><g id="freepik--Device--inject-88"><polygon points="385.69 326.72 363.69 352.06 420.36 363.39 442.36 338.06 385.69 326.72" style="fill:#fff;stroke:#263238;stroke-linecap:round;stroke-linejoin:round"></polygon><polyline points="362.36 404.06 363.69 352.06 420.36 363.39 420.36 416.33" style="fill:#9c9c9c;stroke:#263238;stroke-linecap:round;stroke-linejoin:round"></polyline><line x1="442.36" y1="338.06" x2="442.36" y2="390.72" style="fill:#fff;stroke:#263238;stroke-linecap:round;stroke-linejoin:round"></line><polygon points="398.74 313.87 398.98 333.85 392.8 340.91 413.75 345.64 419.49 338.14 419.49 319.16 398.74 313.87" style="fill:#858585;stroke:#263238;stroke-linecap:round;stroke-linejoin:round"></polygon><line x1="398.98" y1="333.85" x2="419.49" y2="338.14" style="fill:none;stroke:#263238;stroke-linecap:round;stroke-linejoin:round"></line><polygon points="449.52 329.11 447.02 331.77 371.69 243.8 374.19 242.08 449.52 258.05 449.52 329.11" style="fill:#263238;stroke:#263238;stroke-linecap:round;stroke-linejoin:round"></polygon><polygon points="447.02 331.77 371.69 315.8 371.69 243.8 447.02 259.77 447.02 331.77" style="fill:#263238;stroke:#263238;stroke-linecap:round;stroke-linejoin:round"></polygon><polygon points="440.05 323.62 378.66 310.61 378.66 251.95 440.05 264.96 440.05 323.62" style="fill:#fff;stroke:#263238;stroke-linecap:round;stroke-linejoin:round"></polygon><line x1="378.66" y1="310.61" x2="440.05" y2="264.96" style="fill:none;stroke:#263238;stroke-linecap:round;stroke-linejoin:round"></line><polygon points="366.96 358.89 366.96 370.8 416.4 381.4 416.4 369.04 366.96 358.89" style="fill:#fff;stroke:#263238;stroke-linecap:round;stroke-linejoin:round"></polygon><polygon points="366.96 376.98 366.96 388.9 416.4 399.49 416.4 387.13 366.96 376.98" style="fill:#fff;stroke:#263238;stroke-linecap:round;stroke-linejoin:round"></polygon></g></svg>